HIERARCHY
ROOT Hips
{
	OFFSET -0.001795 -0.223333 0.028219
	CHANNELS 6 Xposition Yposition Zposition Zrotation Yrotation Xrotation 
	JOINT LeftUpLeg
	{
		OFFSET 0.069520 -0.091406 -0.006815
		CHANNELS 3 Zrotation Yrotation Xrotation
		JOINT LeftLeg
		{
			OFFSET 0.034277 -0.375199 -0.004496
			CHANNELS 3 Zrotation Yrotation Xrotation
			JOINT LeftFoot
			{
				OFFSET -0.013596 -0.397961 -0.043693
				CHANNELS 3 Zrotation Yrotation Xrotation
				JOINT LeftToe
				{
					OFFSET 0.026358 -0.055791 0.119288
					CHANNELS 3 Zrotation Yrotation Xrotation
					End Site
					{
						OFFSET 0.000000 0.000000 0.000000
					}
				}
			}
		}
	}
	JOINT RightUpLeg
	{
		OFFSET -0.067670 -0.090522 -0.004320
		CHANNELS 3 Zrotation Yrotation Xrotation
		JOINT RightLeg
		{
			OFFSET -0.038290 -0.382569 -0.008850
			CHANNELS 3 Zrotation Yrotation Xrotation
			JOINT RightFoot
			{
				OFFSET 0.015774 -0.398415 -0.042312
				CHANNELS 3 Zrotation Yrotation Xrotation
				JOINT RightToe
				{
					OFFSET -0.025372 -0.048144 0.123348
					CHANNELS 3 Zrotation Yrotation Xrotation
					End Site
					{
						OFFSET 0.000000 0.000000 0.000000
					}
				}
			}
		}
	}
	JOINT Spine
	{
		OFFSET -0.002533 0.108963 -0.026696
		CHANNELS 3 Zrotation Yrotation Xrotation
		JOINT Spine1
		{
			OFFSET 0.005487 0.135180 0.001092
			CHANNELS 3 Zrotation Yrotation Xrotation
			JOINT Spine2
			{
				OFFSET 0.001457 0.052922 0.025425
				CHANNELS 3 Zrotation Yrotation Xrotation
				JOINT Neck
				{
					OFFSET -0.002778 0.213870 -0.042857
					CHANNELS 3 Zrotation Yrotation Xrotation
					JOINT Head
					{
						OFFSET 0.005152 0.064970 0.051349
						CHANNELS 3 Zrotation Yrotation Xrotation
						End Site
						{
							OFFSET 0.000000 0.000000 0.000000
						}
					}
				}
				JOINT LeftShoulder
				{
					OFFSET 0.078845 0.121749 -0.034090
					CHANNELS 3 Zrotation Yrotation Xrotation
					JOINT LeftArm
					{
						OFFSET 0.090977 0.030469 -0.008868
						CHANNELS 3 Zrotation Yrotation Xrotation
						JOINT LeftForeArm
						{
							OFFSET 0.259612 -0.012772 -0.027456
							CHANNELS 3 Zrotation Yrotation Xrotation
							JOINT LeftHand
							{
								OFFSET 0.249234 0.008986 -0.001171
								CHANNELS 3 Zrotation Yrotation Xrotation
								End Site
								{
									OFFSET 0.000000 0.000000 0.000000
								}
							}
						}
					}
				}
				JOINT RightShoulder
				{
					OFFSET -0.081759 0.118833 -0.038615
					CHANNELS 3 Zrotation Yrotation Xrotation
					JOINT RightArm
					{
						OFFSET -0.096012 0.032551 -0.009143
						CHANNELS 3 Zrotation Yrotation Xrotation
						JOINT RightForeArm
						{
							OFFSET -0.253742 -0.013329 -0.021401
							CHANNELS 3 Zrotation Yrotation Xrotation
							JOINT RightHand
							{
								OFFSET -0.255298 0.007772 -0.005559
								CHANNELS 3 Zrotation Yrotation Xrotation
								End Site
								{
									OFFSET 0.000000 0.000000 0.000000
								}
							}
						}
					}
				}
			}
		}
	}
}
MOTION
Frames: 13
Frame Time: 0.050000
0.058519 0.935715 0.027948 -0.766621 -9.722588 8.290295 6.487443 -0.319685 -9.320376 -2.421716 0.397821 12.115085 1.927043 4.921013 3.505126 0.000000 0.000000 0.000000 -3.276584 2.149288 -22.222213 -1.613548 2.145599 24.135042 -0.680353 -5.284951 6.376102 0.000000 0.000000 0.000000 6.852785 -0.503546 3.002647 -2.533247 1.032794 -6.078218 -8.786950 11.927205 1.764687 13.019158 -3.045478 -28.989025 0.000000 0.000000 0.000000 -6.224148 -4.744054 0.564271 -49.109178 -27.825136 5.393734 162.188119 -54.623959 -143.776965 0.000000 0.000000 0.000000 7.881727 1.627445 0.827872 48.111622 46.635531 15.897804 -132.247603 55.327362 -87.074210 0.000000 0.000000 0.000000 
0.058541 0.944857 0.031879 -1.670035 -16.607853 9.486241 5.926320 -0.169020 -5.680639 -2.091515 0.368084 6.978522 3.874687 8.692364 6.118289 0.000000 0.000000 0.000000 -1.625566 2.744538 -22.988877 -3.596840 2.704739 21.106627 2.448324 -1.351457 9.820292 0.000000 0.000000 0.000000 7.718937 -0.319208 1.048729 -1.961218 0.778903 -3.998174 -8.112577 6.108068 0.134709 12.660453 -4.186877 -26.931852 0.000000 0.000000 0.000000 -2.455329 -6.126556 2.038050 -43.511354 -33.237645 7.233980 140.727346 -50.650088 -98.241519 0.000000 0.000000 0.000000 6.120279 3.339109 0.669800 50.635301 49.306650 17.444823 -140.317874 55.876314 -105.046321 0.000000 0.000000 0.000000 
0.058880 0.954162 0.031370 -2.801957 -23.008969 10.331704 5.816327 -0.013896 -3.511785 -2.097356 0.420770 5.079744 5.340528 11.015351 8.310107 0.000000 0.000000 0.000000 0.372673 3.224382 -22.988780 -4.193380 2.590364 18.033559 3.886551 -1.417570 12.799388 0.000000 0.000000 0.000000 7.049559 -0.302637 1.217865 0.271264 -0.199907 -4.112426 -7.327398 0.528038 -1.343921 11.964149 -5.067706 -24.110827 0.000000 0.000000 0.000000 3.046535 -10.191692 3.494691 -35.048979 -36.008568 7.100167 113.282548 -44.153327 -52.702672 0.000000 0.000000 0.000000 3.698142 4.904018 0.876798 54.749833 51.880998 19.031072 -144.720076 56.086731 -117.484371 0.000000 0.000000 0.000000 
0.059706 0.959353 0.026977 -3.181272 -26.405077 10.854074 6.214725 0.074582 -3.673504 -2.855425 0.683686 6.022780 5.373807 10.773783 8.795190 0.000000 0.000000 0.000000 0.981281 3.551361 -23.617909 -4.414565 2.527508 16.893602 5.330573 -0.689101 14.873091 0.000000 0.000000 0.000000 6.048634 -0.401030 2.558678 1.747301 -0.828876 -5.104943 -5.834829 -4.754044 -1.365261 10.416672 -5.167549 -22.241276 0.000000 0.000000 0.000000 7.783568 -14.015946 4.071793 -26.642970 -39.107108 6.530875 89.071828 -33.719983 -22.434375 0.000000 0.000000 0.000000 1.225235 6.557219 1.536783 57.876245 55.300914 20.098093 -146.349066 53.823516 -121.656066 0.000000 0.000000 0.000000 
0.060431 0.961587 0.022072 -2.858406 -28.146964 11.000517 5.784820 0.045485 -4.464780 -3.284100 0.898830 7.293044 5.833555 11.494984 8.754681 0.000000 0.000000 0.000000 1.460735 3.947249 -24.776523 -5.396493 2.829780 17.036391 5.845182 -1.247028 16.575690 0.000000 0.000000 0.000000 5.131523 -0.471933 3.922787 2.988534 -1.301640 -5.473324 -6.019419 -6.148706 -1.759594 9.150243 -4.848509 -21.042111 0.000000 0.000000 0.000000 12.933200 -15.786703 3.508799 -24.117233 -41.474619 7.118012 79.381691 -23.805127 -10.344304 0.000000 0.000000 0.000000 0.783596 6.634651 1.576077 59.033378 56.839586 20.760158 -148.114900 53.448205 -125.180845 0.000000 0.000000 0.000000 
0.060230 0.959359 0.018839 -2.112773 -28.528512 10.882262 6.197912 0.081305 -5.610921 -4.701204 1.400901 8.804863 10.982152 18.653073 18.354092 0.000000 0.000000 0.000000 1.368138 4.032249 -25.109041 -5.600673 2.792810 16.565500 4.682407 -3.303680 16.310740 0.000000 0.000000 0.000000 4.894776 -0.508929 4.685148 2.888663 -1.257570 -5.039422 -6.092763 -5.268337 -1.767396 7.858832 -4.191047 -21.210980 0.000000 0.000000 0.000000 12.813154 -13.551665 2.875037 -26.769669 -41.738147 8.049671 84.181160 -23.570518 -11.111646 0.000000 0.000000 0.000000 0.551690 6.964066 1.762831 57.913467 58.592760 21.341617 -145.651099 51.613477 -118.344080 0.000000 0.000000 0.000000 
0.059912 0.955613 0.016939 -1.167083 -25.965842 10.301634 6.159465 0.014848 -6.379796 -4.440942 1.373676 10.332953 10.471695 18.003353 19.458076 0.000000 0.000000 0.000000 0.036902 3.871276 -25.713114 -4.814959 2.862391 18.246217 3.339285 -4.723500 15.571841 0.000000 0.000000 0.000000 5.518821 -0.577707 5.118852 1.660428 -0.806020 -5.691895 -6.307868 -3.124592 -0.321710 8.990039 -4.384601 -22.873596 0.000000 0.000000 0.000000 8.970681 -11.103792 2.913763 -31.383005 -41.521496 8.828351 98.506123 -27.947847 -20.908673 0.000000 0.000000 0.000000 1.313135 7.729870 1.963730 55.086945 59.227171 21.263653 -142.024808 50.469298 -109.157494 0.000000 0.000000 0.000000 
0.061187 0.951216 0.015052 -0.027037 -21.604349 9.383340 5.832199 -0.118949 -7.461381 -4.183462 1.299407 12.363594 8.205670 15.565857 15.064107 0.000000 0.000000 0.000000 -1.109401 3.534425 -25.892531 -4.720007 3.049117 20.151183 1.159061 -7.658163 15.292290 0.000000 0.000000 0.000000 6.484794 -0.740800 6.421634 0.805842 -0.457988 -6.432506 -7.204245 0.614540 0.855865 8.588486 -3.535996 -24.420708 0.000000 0.000000 0.000000 5.120776 -7.601219 2.421653 -38.282846 -41.396818 10.057920 113.525486 -32.756499 -37.940372 0.000000 0.000000 0.000000 0.572945 5.311230 1.554002 51.626059 59.101294 20.880191 -137.396003 48.672431 -96.157253 0.000000 0.000000 0.000000 
0.064499 0.948811 0.012617 0.690279 -17.477922 9.040700 5.971578 -0.205293 -8.701527 -4.071297 1.163047 13.321300 5.929470 12.414801 12.933072 0.000000 0.000000 0.000000 -2.804317 3.036485 -25.665160 -3.955056 2.882683 21.426344 0.314771 -7.845933 13.991717 0.000000 0.000000 0.000000 7.360078 -0.916017 7.521600 0.027423 -0.117262 -7.611789 -7.406200 3.856921 2.040483 8.802658 -2.918213 -26.092878 0.000000 0.000000 0.000000 2.168826 -6.023449 2.107170 -41.289674 -39.288537 9.316558 124.206033 -35.890165 -54.380369 0.000000 0.000000 0.000000 0.241211 3.509779 1.124880 51.662708 58.130592 21.669624 -134.482144 47.869652 -87.828414 0.000000 0.000000 0.000000 
0.069048 0.948620 0.009666 1.300172 -13.732791 8.762613 5.847786 -0.307929 -9.496791 -3.844658 0.952696 13.522050 3.932531 9.436623 11.568121 0.000000 0.000000 0.000000 -3.614721 2.595606 -24.792751 -3.942092 2.690242 21.307015 -1.236978 -9.930729 13.673437 0.000000 0.000000 0.000000 7.626724 -0.935795 7.182169 -0.577508 0.182321 -6.804729 -7.197513 5.074276 1.625040 8.530286 -2.322882 -26.652989 0.000000 0.000000 0.000000 0.145032 -4.423544 1.521238 -43.710212 -36.918660 8.685133 128.974126 -38.846324 -66.011342 0.000000 0.000000 0.000000 -0.755225 2.614972 0.954350 54.362985 56.033476 22.847152 -130.683358 48.614326 -82.051900 0.000000 0.000000 0.000000 
0.073418 0.950427 0.007144 1.719513 -10.823569 9.234352 5.507246 -0.441486 -11.139052 -3.297239 0.726708 14.443527 4.104646 9.753772 8.796932 0.000000 0.000000 0.000000 -4.899607 2.169382 -23.983588 -3.608739 2.317044 20.223222 -1.249300 -9.290214 13.041650 0.000000 0.000000 0.000000 7.551275 -0.897379 6.447514 -0.010746 0.007561 -6.445349 -8.114852 5.462254 1.417593 8.658689 -2.186000 -26.214155 0.000000 0.000000 0.000000 0.225505 -3.821303 1.292159 -45.385714 -36.721262 8.835398 130.890443 -42.625514 -75.311547 0.000000 0.000000 0.000000 -1.269480 0.641936 0.328815 58.373561 53.366998 23.969981 -132.904169 49.585879 -84.744577 0.000000 0.000000 0.000000 
0.076465 0.950892 0.005374 1.507453 -8.995379 9.665022 5.864714 -0.480773 -12.409851 -3.043620 0.610731 15.375518 3.644988 8.887827 7.232953 0.000000 0.000000 0.000000 -5.112857 1.967126 -23.146184 -3.098214 1.981865 19.191653 -1.884058 -9.821676 11.905640 0.000000 0.000000 0.000000 7.170035 -0.778221 5.257638 0.224469 -0.054903 -6.630007 -7.694808 4.700150 1.897979 8.462637 -2.215834 -25.383965 0.000000 0.000000 0.000000 0.565948 -4.472262 1.533925 -45.893814 -35.758268 8.520521 130.732490 -44.723296 -78.120570 0.000000 0.000000 0.000000 -1.145877 0.303498 0.204616 60.633582 50.565768 23.310366 -136.186359 51.183861 -91.086224 0.000000 0.000000 0.000000 
0.078203 0.949706 0.004282 0.985725 -9.358692 10.086024 5.986483 -0.475591 -13.265665 -2.324684 0.463573 16.461701 3.565091 8.610459 6.511809 0.000000 0.000000 0.000000 -4.591978 2.047711 -23.014721 -3.093677 1.915478 18.454264 -1.988339 -9.723653 10.820511 0.000000 0.000000 0.000000 6.649568 -0.718497 4.955379 0.340798 -0.101283 -7.020255 -7.555134 4.538322 2.161300 8.724978 -2.446917 -25.079836 0.000000 0.000000 0.000000 0.371600 -4.016215 1.373533 -46.134272 -35.201382 8.370318 130.844351 -47.606027 -81.888733 0.000000 0.000000 0.000000 -0.508845 -0.343619 -0.062974 62.246928 49.117635 22.994233 -140.866364 52.309504 -99.339955 0.000000 0.000000 0.000000 
